<svg width="512" height="512" viewBox="0 0 512 512" fill="none" xmlns="http://www.w3.org/2000/svg">
  <path d="M256 460C180 460 100 400 70 320C55 280 40 220 80 150C110 100 180 80 230 110L256 125L282 110C332 80 402 100 432 150C472 220 457 280 442 320C412 400 332 460 256 460Z" fill="#E67E22" stroke="#5D2E17" stroke-width="12"/>
  
  <path d="M140 230C160 210 200 210 220 230" stroke="#5D2E17" stroke-width="12" stroke-linecap="round"/>
  
  <circle cx="340" cy="235" r="35" fill="white" stroke="#5D2E17" stroke-width="4"/>
  <circle cx="345" cy="225" r="15" fill="#5D2E17"/>
  
  <path d="M130 300C130 300 180 370 256 370C332 370 382 300 382 300" stroke="#5D2E17" stroke-width="10" stroke-linecap="round"/>
  
  <path d="M210 335L220 365L230 335H210Z" fill="white"/>
  <path d="M282 335L292 365L302 335H282Z" fill="white"/>
  
  <path d="M340 335C355 335 375 345 385 370C385 370 365 385 345 375" fill="#E74C3C" stroke="#5D2E17" stroke-width="6" stroke-linejoin="round"/>
  <line x1="365" y1="345" x2="375" y2="365" stroke="#5D2E17" stroke-width="2"/>
</svg>