<?xml version="1.0" encoding="UTF-8" standalone="no"?>
<svg
   width="407.79999"
   height="392.79999"
   viewBox="0 0 407.79997 392.79998"
   version="1.1"
   id="svg4"
   sodipodi:docname="libviprs-logo-claws.svg"
   inkscape:version="1.4.3 (0d15f75, 2025-12-25)"
   xml:space="preserve"
   inkscape:export-filename="libviprs-logo-claws.png"
   inkscape:export-xdpi="96"
   inkscape:export-ydpi="96"
   xmlns:inkscape="http://www.inkscape.org/namespaces/inkscape"
   xmlns:sodipodi="http://sodipodi.sourceforge.net/DTD/sodipodi-0.dtd"
   xmlns="http://www.w3.org/2000/svg"
   xmlns:svg="http://www.w3.org/2000/svg"><defs
     id="defs4" /><sodipodi:namedview
     id="namedview4"
     pagecolor="#ffffff"
     bordercolor="#000000"
     borderopacity="0.25"
     inkscape:showpageshadow="2"
     inkscape:pageopacity="0.0"
     inkscape:pagecheckerboard="0"
     inkscape:deskcolor="#d1d1d1"
     inkscape:zoom="1.3778944"
     inkscape:cx="13.789156"
     inkscape:cy="275.78311"
     inkscape:window-width="2021"
     inkscape:window-height="1657"
     inkscape:window-x="0"
     inkscape:window-y="30"
     inkscape:window-maximized="0"
     inkscape:current-layer="g4" /><g
     id="g4"
     transform="translate(-2.4516979,-4.0652815)"><path
       style="fill:#be6e34;fill-opacity:1;stroke-width:0.502916"
       d="m 166.16059,291.01053 c -6.86836,-8.31199 -16.88407,-16.96629 -26.80821,-23.32133 -13.49433,-8.64126 -13.42544,-8.80953 -21.54582,-18.65727 -8.20918,-9.95541 -16.71718,-18.89271 -24.474363,-25.99608 C 83.953715,214.44782 81.71736,212.40354 68.280005,202.05877 46.293901,185.13275 41.978379,181.18421 36.113477,172.17432 c -4.850699,-7.45183 -7.689042,-16.25568 -8.609245,-25.92116 -0.84905,-8.91811 3.812259,-23.98992 11.063947,-34.95012 1.387316,-2.09679 4.559987,-6.49226 7.175276,-9.17162 l 4.453799,-4.562924 0.103942,-4.601005 c 0.266412,-11.79266 1.523275,-25.029181 3.970795,-33.295548 6.808273,-22.994578 27.368032,-41.833847 48.651229,-44.502535 15.63976,-1.961062 29.06749,1.432696 41.90382,10.95025 9.95844,7.383733 18.5177,17.609115 26.16397,32.783803 3.34044,6.629407 4.7872,8.536086 5.19412,7.928305 0.79665,-1.18988 -0.50776,-14.578406 -3.20124,-23.978303 -1.52138,-5.309409 -2.14393,-5.412412 2.65842,-6.238952 14.27407,-2.456735 36.55854,-3.217706 52.43005,-0.423437 5.9709,1.051211 7.06014,0.777775 6.82877,1.884148 -0.77964,3.72817 -1.04924,3.611235 -1.73472,6.904697 -2.4018,11.539749 -2.4918,16.496615 -2.19059,18.707388 0.10744,0.788535 4.75168,-6.685478 5.31067,-7.757161 1.18406,-2.270066 2.50972,-3.779415 7.59452,-11.700734 5.50816,-8.580844 10.04244,-12.331422 15.6073,-16.702044 7.98698,-6.272952 16.9915,-10.542925 25.29206,-12.110123 6.26119,-1.182155 18.85392,-0.719465 24.6305,0.841 9.95981,2.690505 18.08087,7.207749 26.27959,15.411933 13.24759,13.256406 19.59275,28.987579 20.76103,52.531377 0.26079,5.255471 0.34153,10.501056 0.48653,11.346277 0.15363,0.895567 0.9876,2.648919 2.16978,3.803287 1.11572,1.089471 2.69995,3.113671 3.52051,4.498231 0.82056,1.38455 3.12467,4.081 4.66764,6.29383 3.60806,5.17447 6.56452,11.30607 8.4917,16.39518 0.81201,2.14427 2.34089,8.10739 2.52905,9.6836 0.35392,2.96471 1.34541,5.89616 1.10093,10.75327 -0.76277,15.1535 -4.54049,23.23286 -14.35441,33.50383 -4.40181,4.60682 -8.50129,8.69101 -27.76633,24.97663 -18.66391,15.77746 -32.64417,25.89511 -42.52711,37.37915 -11.81584,13.73008 -19.87645,18.74177 -32.77366,28.79959 -6.65745,5.19179 -13.81638,11.33138 -19.08113,17.29036 -5.12846,5.80472 -5.89305,6.6254 -7.32118,6.44696 -1.72651,-0.21571 -4.92911,-8.53957 -6.86716,-14.33134 -3.84946,-11.50396 -4.98918,-20.00633 -3.66572,-29.09726 1.51937,-7.01409 2.6126,-14.22378 4.88441,-20.99886 l 1.04284,-3.11001 10.28987,0.71534 c 16.09413,1.11884 21.40015,-0.93507 36.58299,-8.07738 12.60313,-5.92876 26.53793,-19.73385 34.7102,-29.10502 3.72827,-4.27521 4.41636,-6.18044 7.01978,-9.95681 2.0832,-3.02176 4.74451,-7.34759 8.1974,-13.24692 0.37282,-0.63697 1.89651,0.64165 6.4484,3.34356 3.06395,1.81872 5.41491,3.29384 6.0205,3.29384 1.01598,0 1.10896,-0.38274 0.8987,-2.72643 -0.29753,-3.31647 -3.23181,-8.07691 -6.8418,-11.45973 -4.48926,-4.20675 -4.55533,-4.9804 -12.44803,-4.96895 -9.02809,0.0131 -15.4161,1.98593 -15.98638,4.08466 -0.26236,0.9655 2.3544,1.94639 4.73752,2.6264 0.96313,0.27482 2.57994,0.37591 4.0823,0.43463 1.37738,0.0538 2.77896,0.55025 2.77896,0.93857 0,0.88071 -4.69754,7.85187 -10.63251,15.21841 -15.70094,19.48814 -33.85177,31.95012 -50.19996,34.36934 -5.88129,0.87032 -6.83072,1.36648 -13.27047,0.94975 -10.14877,-0.65673 -13.55962,-1.33798 -25.72391,-5.28564 -11.32888,-3.67654 -14.9784,-3.65376 -28.04115,0.47001 -17.05086,5.38277 -29.55482,5.99977 -42.96415,2.4112 -14.27676,-3.82072 -28.87595,-13.89288 -42.41932,-29.15506 -6.163463,-6.94567 -14.252434,-18.40665 -13.522271,-19.13682 0.179551,-0.17955 0.544037,-0.68041 2.303072,-0.79904 3.988045,-0.26896 8.186179,-1.50032 8.814339,-2.74333 1.07472,-2.12671 -5.95573,-4.13586 -16.142901,-4.2215 -6.71691,-0.0565 -9.94445,2.57931 -11.488292,3.82686 -3.680623,2.97424 -8.985917,11.26692 -8.604744,14.54586 0.231142,1.98835 2.614389,0.71812 7.187945,-2.28451 4.096676,-2.68954 5.624648,-3.33377 7.169556,-2.78672 2.258895,0.79987 2.698598,3.01702 3.78894,4.99831 4.481484,8.1434 13.925166,20.27753 22.979226,29.34627 4.78859,4.79635 15.77966,13.03198 21.25839,16.192 4.79488,2.76557 19.92923,7.83737 30.06247,8.52079 4.00083,0.26983 6.08888,0.37059 15.10224,0.0165 3.17088,-0.12455 3.76197,-0.13935 4.51795,1.01442 0.99437,1.5176 3.12635,10.61914 4.17495,17.986 1.02601,7.20822 0.98671,19.76952 -0.0331,25.47878 -1.50245,8.41152 -8.57493,25.0852 -10.92109,23.4478 -0.62957,-0.43938 -2.42656,-2.3319 -4.71326,-5.09923 z m 66.86083,-103.92292 c 1.69662,-1.48965 5.91594,-3.60141 10.48658,-5.24849 6.12659,-2.2078 8.03598,-6.66099 4.41052,-10.28646 -4.29054,-4.29054 -13.11572,-0.75725 -16.62089,6.65442 -2.17515,4.59936 -2.56199,10.3864 -0.69428,10.3864 0.38664,0 1.47477,-0.67764 2.41807,-1.50587 z m -55.70296,0.43435 c 0.19328,-0.31273 0.33266,-1.89178 0.30973,-3.50899 -0.0984,-6.94341 -5.46493,-13.07569 -12.13401,-13.86554 -4.55328,-0.53928 -8.08149,1.69548 -8.08149,5.11877 0,2.9474 2.60633,5.03795 8.91967,7.41197 2.6515,0.99704 4.11276,1.89116 6.18037,3.13468 4.11725,2.47622 4.293,2.53872 4.80573,1.70911 z m 118.5529,-58.28792 c 6.53203,-1.83584 11.99358,-9.86939 13.79783,-17.53599 1.73793,-7.38479 2.13759,-19.907767 0.16263,-21.850652 -0.88069,-0.866373 -0.0943,-0.997007 -3.04427,3.221859 -3.92902,5.61908 -11.0252,4.960039 -13.94962,-1.356409 -1.73424,-3.745789 -1.3063,-7.573437 1.95537,-12.273977 1.06398,-1.53334 2.24422,-3.04225 2.24422,-3.50456 0,-1.26678 -2.02037,-1.840619 -5.19374,-1.822936 -4.62796,0.02579 -8.29592,1.961245 -12.16116,5.576728 -5.42489,5.074351 -8.02945,12.533725 -7.98847,22.911997 0.0371,9.38297 2.94616,17.164 8.11956,22.3374 1.57671,1.57671 3.33044,2.88618 4.13383,3.30163 3.68536,1.88532 7.99971,2.09778 11.92382,0.99491 z m -144.61832,-4.06371 c 2.41409,-2.20693 2.36666,-3.38315 1.88208,-7.71611 -1.35139,-12.0837 -14.28107,-25.259725 -28.57133,-30.335711 -3.27138,-1.162012 -4.39393,-1.561967 -13.16672,-2.021013 -6.18996,-0.142698 -10.69615,0.292361 -12.899107,0.675981 -11.837862,2.061478 -25.701031,12.716542 -24.651898,18.822673 0.272672,1.587 2.156737,2.34722 4.319001,1.90972 0.850914,-0.17217 5.314037,-1.57815 8.080075,-2.49422 6.684834,-2.21392 12.188297,-2.98709 19.151249,-2.98709 6.98837,0 11.51494,1.29642 17.20947,3.94037 5.84209,2.71246 10.32021,6.21162 18.77997,14.72304 3.97287,3.99715 7.135,7.22882 7.41892,7.22882 0.28391,0 1.59111,-0.96284 2.44829,-1.74646 z M 330.68189,95.871659 c 0.90496,-4.122991 0.57084,-15.768362 -0.11598,-21.386351 -1.14214,-9.341895 -3.77276,-16.02756 -9.33306,-22.765363 -9.50791,-11.521391 -22.70165,-15.780856 -35.70153,-11.416938 -15.97074,5.256471 -29.77693,24.076629 -29.7883,49.525473 -0.004,9.834242 0.0431,9.834798 2.60246,-1.465115 0.72046,-3.180943 1.99334,-7.525674 2.9202,-9.654955 4.91968,-11.302005 15.89255,-23.03046 24.08037,-25.465736 3.69982,-1.100425 12.58288,-1.648133 16.227,-0.90044 8.10558,1.663081 17.50903,9.735488 22.47973,19.395021 3.96227,7.699849 5.68069,15.721788 5.68069,24.708121 0,6.335924 -0.31894,5.200314 0.94842,-0.573717 z"
       id="path15"
       transform="translate(2.4516979,4.0652815)"
       sodipodi:nodetypes="ssssssssscssssssssssssssssssssssssssssssssssscssssssssssssssssssssssssssssssssssssssssssssssssssssssssssssssssssssscsssssssssssscssssssss" /><ellipse
       style="fill:#ffffff;fill-opacity:1;stroke-width:0.797638"
       id="path14"
       cx="295.6517"
       cy="94.338699"
       rx="37.215778"
       ry="48.531387" /><g
       inkscape:groupmode="layer"
       id="layer2"
       inkscape:label="Layer 2"
       transform="translate(2.4516979,4.0652815)" /><g
       inkscape:groupmode="layer"
       id="layer3"
       inkscape:label="Layer 3"
       transform="translate(3.1043352,1.9442102)"><path
         style="fill:#ffffff;fill-opacity:1"
         d="m 161.48002,227.87865 -0.9464,4.20622 -0.52578,5.15263 -0.63093,5.88871 -0.63093,7.15057 0.21031,2.8392 -0.9464,0.84125 -2.10311,0.10515 -2.62889,-2.20826 -4.83716,-5.78356 -3.68044,-5.88871 -3.25982,-7.25573 -1.47218,-4.732 -0.52578,-4.41653 4.62685,1.36702 5.46809,1.26186 5.04746,0.73609 4.62685,0.42063 z"
         id="path28" /><path
         style="fill:#ffffff;fill-opacity:1"
         d="m 244.3183,230.80465 1.39427,5.89882 0.75076,5.14805 0.85801,6.75683 0.64351,6.86408 1.50151,1.50152 1.93052,0.10725 3.21754,-4.50455 4.93356,-6.43508 3.00303,-6.54232 1.93052,-5.68432 1.07252,-3.96829 0.10725,-2.25228 v -0.75076 l -4.50455,1.60877 -4.1828,0.96526 -5.79157,0.75076 z"
         id="path29" /></g><path
       d="m 162.5,393.14 c -10.5,2.77 -35.35,3.48 -46.67,1.35 C 87.35,389.12 59.22,374.13 37.96,353 18.05,333.21 7.27,312.67 3.97,288.24 2.31,276.01 3.2,255.95 5.85,245.86 9.79,230.86 18.59,217 31.56,205.35 l 7.36,-6.62 -5.03,-5.61 C 27.54,186.03 22.44,177 19.23,167.17 16.12,157.62 15.76,141.33 18.44,131 c 2.47,-9.56 9.71,-23.72 15.33,-30 l 4.92,-5.5 0.62,-12 c 1.18,-22.83 9,-41.68 23.58,-56.84 13.9,-14.45 31.15,-21.92 50.61,-21.92 18.57,0 35.7,6.91 49.61,19.99 l 3.6,3.39 10.9,-1.7 c 13.85,-2.18 43.79,-2.21 57.33,-0.07 l 9.45,1.5 7.55,-6.09 C 265.9,10.5 281.61,4.75 298.5,4.72 c 27.64,-0.05 52,15.34 64.52,40.78 6.01,12.19 9.07,24 9.72,37.49 l 0.56,11.48 5.91,7.02 c 7.19,8.53 12.1,18.22 14.91,29.44 1.75,7 2.03,10.4 1.62,20 -0.74,17.21 -5.14,28.41 -16.38,41.68 l -5.17,6.11 6.02,5.3 c 13.1,11.53 22.76,26.79 26.9,42.48 4.5,17.04 3.54,42.44 -2.29,60.5 -11.1,34.38 -48.12,69.51 -86.82,82.38 -25.28,8.4 -52.74,8.87 -74.83,1.28 -12.68,-4.36 -23.26,-11.97 -20.48,-14.75 0.54,-0.54 5.7,-2.3 11.47,-3.91 21.47,-5.98 38.67,-15.03 51.25,-26.99 7.82,-7.42 16.58,-19.18 14.75,-19.79 -1.41,-0.47 -15.79,3.36 -25.84,6.87 -14.61,5.12 -28.24,12.61 -49.78,27.35 -0.91,0.63 -1.94,0.47 -3.09,-0.48 -1.46,-1.21 -1.62,-2.6 -1.1,-9.44 l 0.62,-8.02 H 191.5 l 0.33,8.37 c 0.18,4.61 -0.12,8.82 -0.65,9.35 -0.64,0.64 -4.93,-1.62 -12.33,-6.49 -15.55,-10.25 -26.46,-15.92 -38.85,-20.22 -11.64,-4.04 -26.91,-7.94 -27.76,-7.09 -0.98,0.99 6.97,11.97 12.88,17.76 13.29,13.04 33.47,23.23 59.11,29.85 6.43,1.66 7.66,3.29 5.11,6.77 -2.67,3.63 -16.98,10.75 -26.84,13.34 z m 7.11,-97.13 c 3.02,3.97 4.06,4.74 5.02,3.75 2.44,-2.54 7.35,-13.56 8.82,-19.82 2.75,-11.66 1.86,-27.93 -2.39,-43.71 -1.09,-4.07 -1.21279,-4.26996 -5.01022,-3.96065 -11.22382,0.91421 -21.37478,-0.0494 -31.84978,-3.25935 -6.03924,-2.02094 -12.49957,-3.57697 -17.59,-7.58 -1.17079,-0.90499 -4.82524,-3.46233 -7.5,-5.36 -9.78,-6.28 -29.07,-29.03 -34.19,-40.32 -1.68,-3.72 -4.47,-3.53 -10.42,0.7 -7.48,5.32 -8.57,2.94 -3.16,-6.95 3.031761,-4.36349 4.587796,-5.49608 7.8,-7.89 1.983665,-1.09104 3.843857,-1.93129 10.003857,-1.78129 8.91,0.22 14.426143,1.62129 15.206143,3.65129 0.59,1.53 -4.57,3.5 -9.21,3.51 -3,0.01 -2.65,0.93 3.97,10.2 10.3,14.45 26.33,28.63 39.12,34.63 16.35,7.66 34.17,8.23 53.29,1.7 12.98,-4.44 17.45,-4.63 26.98,-1.16 31.64,11.53 55.12,6.41 79.93,-17.41 6.99,-6.71 20.15,-23.3 21.4,-26.97 0.19,-0.54 -0.98,-0.98 -2.6,-0.98 -4.08,0 -9.4,-2 -8.95,-3.36 1.08,-3.31 16.89329,-5.84235 23.15329,-3.22235 4.11,1.71 10.26671,8.89235 11.75671,13.84235 1.34,4.46 0.53,5.68 -2.49,3.76 -1.21,-0.77 -4.03,-2.43 -6.26,-3.69 l -4.07,-2.29 -5.42947,9.34376 c -3.44434,5.01992 -1.79921,2.61802 -5.71248,8.54115 -5.78909,8.76238 -15.03976,17.1857 -22.99805,24.08509 -7.93095,7.56313 -19.78478,12.38793 -21.23,12.96 -13.45443,6.8801 -21.02528,6.10099 -32.04,5.62 l -9.54,-0.65 c -1.12745,3.1249 -6.01088,21.26431 -6.42,31.6 0,6.77 2.59,18.32 5.87,26.21 2.67,6.42 3.83,9.47 5.38,9.68 1.32,0.18 2.92,-1.69 5.99,-5.27 0.24,-0.28 0.49,-0.58 0.75,-0.88 6.94,-8.08 17.39069,-16.15792 25.78931,-22.52426 14.71886,-11.86391 13.6405,-9.9733 24.45069,-21.50574 11.46,-14.55 27.27778,-23.73975 56.54,-51.01 16.37,-12.59 22.35,-19.79 27.16,-32.74 4.4862,-11.92107 2.92218,-19.07543 0.61,-30 -1,-5.55 -6.5,-17.07 -10.88,-22.76 -5.33355,-6.95219 -4.68528,-5.27441 -7.68026,-9.81134 C 358.82108,99.658613 359,100.18 359,92.89 359,67.86 351.25,47.62 336.52,34.18 324.7,23.4 313.17,18.8 298,18.8 c -6.83,0 -11.32,0.58 -16,2.06 -12.21,3.88 -24.69,12.89 -32.49,23.45 l -0.58,0.78 c -6.91,9.35 -14.73187,22.999791 -15.58303,22.905346 -0.41606,-0.241897 0.48848,-13.842065 2.77133,-21.147173 1.04,-3.35 0.71121,-2.761632 1.0317,-5.248173 -0.36,-0.22 -4.25,-0.97 -8.65,-1.67 -10.8,-1.72 -32.81,-1.74 -44.83,-0.04 -9.28,1.31 -9.79,1.51 -9.17,3.5 3.22,10.28 5.64,27.61 3.85,27.61 -0.51,0 -2.42,-3.04 -4.25,-6.75 C 162.67,41.07 146.93,26.14 128.07,20.6 119.5,18.08 104.62,18.44 96.55,21.37 86.78,24.92 79.58,29.69 72.02,37.64 59.86,50.4 54.25,65.66 53.31,88.5 l -0.54,13 -4.76,5 C 37.86,117.15 30,135.1 30,147.62 c 0,7.46 2.91,18.85 6.29,24.62 6.57,11.2 10.55,15.39 25.71,27.04 3.03,2.33 10.45,8.05 16.5,12.71 14.67,11.3 29.7,25.97 41.02,40.06 8.72,10.84 9.95,11.95 20.04,18 11.22,6.73 23.43,17.29 30.05,25.96 z m 95.28,85.88 c 27.05371,0.57689 16.35217,0.11439 31.33545,-1.55588 38.2285,-8.33644 59.59157,-29.89507 85.03327,-54.91018 6.60955,-8.56136 6.30609,-10.49272 8.74128,-17.96394 0,-1.13 1.17,-6.07 2.59,-10.99 3.28,-11.3 3.28,-16.85 0.02,-23.14 -4.99,-9.64 -11.83,-15.05 -23.82,-18.84 -18.06,-5.7 -43.54,-1.37 -52.59,8.93 -6.14,7 -6.16,10.04 -0.2,32.51 4.16,15.68 1.75,27.15 -9.05,43.21 -9.24,13.72 -28.41,29.15 -45.99,37.02 -8.22,3.67 -7.85,4.21 3.93,5.73 z m -140.81,0.02 c 6.62,1.14 24.00491,-0.67784 30.73326,-1.5672 2.57,-0.7 3.89674,-1.2628 2.93674,-1.3828 -2.75,-0.33 -2.76537,-0.57394 -6.73394,-2.14583 -3.49713,-1.49225 -2.77978,-0.81347 -8.33675,-4.01023 -1.55852,-0.91068 -5.15279,-4.03115 -10.32279,-7.41115 -13.64,-8.9 -25.7555,-22.07225 -31.9255,-34.37225 -5.190003,-10.35 -7.159152,-18.94764 -6.109152,-25.97764 0.37,-2.51 1.811307,-9.76959 3.451307,-16.09959 3.509995,-13.52 3.275055,-18.89198 -0.754947,-24.17198 -9.97,-13.07 -41.341247,-16.47435 -60.781247,-6.62435 -10.92,5.53 -18.440296,15.50817 -18.440296,24.85817 0,4.93 1.408167,11.91237 2.916037,17.85485 13.820481,43.33042 50.526309,65.33165 87.302418,76.38085 5.83753,1.95473 10.5679,3.47561 16.06486,4.66915 z M 172,333.38 c 1.93,1.39 3.89,2.54 4.36,2.57 3,0.17 -6.35,-19.06 -14.59,-29.98 -10.2,-13.52 -24.22,-24.46 -40.42,-31.51 l -7.85,-3.42 -0.61,5.23 c -0.34,2.88 -2,10.18 -3.69,16.23 -1.7,6.05 -3.36,12.41 -3.7,14.14 l -0.61,3.14 6.81,1.17 c 19.9,3.42 48.88,14.2 60.3,22.43 z m 63.45,0.94 -0.7,2.82 5.37,-3.43 c 15.47,-9.87 42.89,-19.95 63.13,-23.2 2.06,-0.33 3.75,-1.14 3.75,-1.81 -0.01,-0.66 -1.58,-7.05 -3.49,-14.2 -1.92,-7.15 -3.49,-15.14 -3.5,-17.75 -0.01,-3.94 -0.32,-4.75 -1.85,-4.75 -2.68,0 -20.19,9.14 -27.47,14.32 -14.87,10.62 -31.58,33.38 -35.24,48 z m -14.77,-38.3 c 3.59,3.36 6.71,5.92 6.94,5.69 0.23,-0.23 -0.93,-3.29 -2.57,-6.81 -5.2,-11.16 -6.54,-17.94 -6.47,-32.9 0.04,-10.15 0.6,-15.84 2.24,-22.95 1.2,-5.2 2.18,-9.52 2.18,-9.59 0,-0.08 -2.81,-0.94 -6.25,-1.91 -3.44,-0.98 -7.46,-2.22 -8.95,-2.76 -2.07,-0.76 -4.16,-0.5 -9,1.13 -4.94,1.66 -7.24,2.3 -8.06,3.77 -0.7,1.25 -0.32,3.11 0.41,6.7 0.08,0.39 0.16,0.8 0.24,1.23 5,24.91 3.74,43.31 -4.02,58.63 -1.85,3.65 -2.07,4.75 -0.98,4.75 1.88,0 11.19,-9.21 15.61,-15.43 1.93,-2.72 4,-5.1 4.62,-5.29 0.62,-0.2 2.56,1.89 4.33,4.64 1.76,2.75 6.14,7.74 9.73,11.1 z m 82.08,-164.96 c -3.15,2.28 -5.09,2.93 -8.66,2.88 -6,-0.09 -8.1,-1.01 -12.45,-5.49 -9.82,-10.11 -10.3,-32.39 -0.95,-43.51 4.69,-5.56 14.04,-8.65 18.21,-6.01 1.16,0.73 0.94,1.46 -1.21,4.01 -3.48,4.14 -4.33,8.95 -2.28,12.91 3.82,7.39 11.05,6.75 15.37,-1.35 1.94,-3.64 3.48,2.86 2.92,12.31 -0.63,10.6 -4.78,19.78 -10.95,24.25 z m -148.64,-2.18 c -1.16,1.16 -2.46,2.11 -2.87,2.11 -0.41,-0.01 -4.57,-4.03 -9.25,-8.94 -10.25,-10.77 -19.17,-15.67 -30.36,-16.72 -7.72,-0.72 -18.75,0.91 -25.96,3.83 -5.77,2.34 -9.08,2.11 -9.45,-0.66 -0.45,-3.4 3.49,-8.36 9.97,-12.55 8.96,-5.79 14.87,-7.24 27.67,-6.78 9.33,0.33 11.43,0.75 17.15,3.44 12.68,5.97 23.28003,17.68025 24.65,29.23 0.49,4.14 0.25,5.24 -1.55,7.04 z m 237.47,123.53 c 2.15,1.87 4.05,3.03 4.21,2.58 0.17,-0.45 -0.87,-4.34 -2.3,-8.65 -4.14,-12.44 -12.82,-24.48 -23.97,-33.24 l -6.37,-5.01 -6.83,5.09 c -3.76,2.8 -8.18,6.19 -9.83,7.53 -1.65,1.33 -4.8,3.82 -7,5.52 -2.2,1.69 -29.51976,23.11199 -28.53976,22.76199 2.72963,-0.99653 22.97737,-9.8459 43.32512,-9.02301 12.1,-0.67 27.40464,3.84102 37.30464,12.44102 z M 16.68,256 c 2.074798,0 13.815896,-16.28009 42.55,-17.17 25.519603,-0.0469 43.26756,14.2234 45.07756,13.3334 C 83.193377,237.03038 53.213159,209 49.54,209 23.679519,221.02779 15.134127,256 16.68,256 Z M 333.65,85 c 0.26,5.78 0.04,12.53 -0.48,15 l -0.95,4.5 -0.11,-6.04 c -0.24,-13.09 -5.37,-25.58 -13.78,-33.53 -7.71,-7.3 -12.79,-9.28 -22.36,-8.72 -5.99,0.34 -8.71,1.03 -12.22,3.09 -10.63,6.23 -20.26,19.96 -22.75,32.43 -2.34,11.75 -2.79,12.29 -2.9,3.48 -0.29,-23.46 8.99,-41.38 25.51,-49.26 15.09,-7.2 30.55,-2.93 41.4,11.45 5.73,7.59 8.07,15.05 8.64,27.6 z M 191.34,325.85 c 5.58,1.26 28.89,1.39 32.05,0.19 1.61,-0.61 3.3,-2.69 4.68,-5.75 1.19,-2.63 2.36,-5.11 2.59,-5.5 0.23,-0.4 -1.97,-1.92 -4.87,-3.39 -2.96,-1.49 -8.44,-5.86 -12.44,-9.91 l -7.15,-7.24 -6.64,6.69 c -3.66,3.69 -8.87,8.02 -11.59,9.63 -2.71,1.61 -4.94,3.5 -4.95,4.19 -0.01,0.69 0.92,3.26 2.07,5.71 1.81,3.85 2.65,4.57 6.25,5.38 z m 52.40868,-138.95132 c -3.11904,1.24832 -2.38584,1.09612 -6.12624,3.00384 -3.79016,2.56508 -4.76184,3.16592 -5.12184,2.80592 -1.21,-1.22 -0.81916,-6.3976 1.10084,-10.6476 3.25,-7.14 13.00784,-10.74012 16.92784,-6.41012 3.76,4.16 1.1594,8.93796 -6.7806,11.24796 z m -63.52551,1.87014 c 0,4.07 -0.96822,4.30376 -4.62822,1.57376 -1.45,-1.09 -4.49436,-2.75564 -6.88436,-3.60564 -6.45,-2.27 -9.15694,-4.71199 -9.15694,-7.49199 0,-3.47 4.76329,-5.94189 9.12329,-5.12189 6.63,1.25 11.54623,7.87576 11.54623,14.64576 z"
       fill="#6d2c0f"
       id="path1"
       sodipodi:nodetypes="ccccccccccccccsccccccccccccccccccccsccscccccccscccccccccccscsccccccccccccccscccccccsccccsccccccccccsscscccccccccscccccccscccccccccccccccccccccccccccccscccccccccccccccccccccsccsscccscccccccscccsccccccccccscccccccccscccccccccccsccsscccccccccccccccccccccsccccccccsccscs" /><path
       d="M 0,199.5 V 0 H 206.5 413 V 199.5 399 H 206.5 0 Z m 162.5,193.64 c 9.86,-2.59 24.17,-9.71 26.84,-13.34 2.55,-3.48 1.32,-5.11 -5.11,-6.77 -25.64,-6.62 -45.82,-16.81 -59.11,-29.85 -5.91,-5.79 -13.86,-16.77 -12.88,-17.76 0.85,-0.85 16.12,3.05 27.76,7.09 12.39,4.3 23.3,9.97 38.85,20.22 7.4,4.87 11.69,7.13 12.33,6.49 0.53,-0.53 0.83,-4.74 0.65,-9.35 l -0.33,-8.37 h 14.73 14.74 l -0.62,8.02 c -0.52,6.84 -0.36,8.23 1.1,9.44 1.15,0.95 2.18,1.11 3.09,0.48 21.54,-14.74 35.17,-22.23 49.78,-27.35 10.05,-3.51 24.43,-7.34 25.84,-6.87 1.83,0.61 -6.93,12.37 -14.75,19.79 -12.58,11.96 -29.78,21.01 -51.25,26.99 -5.77,1.61 -10.93,3.37 -11.47,3.91 -2.78,2.78 7.8,10.39 20.48,14.75 22.09,7.59 49.55,7.12 74.83,-1.28 38.7,-12.87 75.72,-48 86.82,-82.38 5.83,-18.06 6.79,-43.46 2.29,-60.5 -4.14,-15.69 -13.8,-30.95 -26.9,-42.48 l -6.02,-5.3 5.17,-6.11 c 11.24,-13.27 15.64,-24.47 16.38,-41.68 0.41,-9.6 0.13,-13 -1.62,-20 -2.81,-11.22 -7.72,-20.91 -14.91,-29.44 L 373.3,94.47 372.74,82.99 C 372.09,69.5 369.03,57.69 363.02,45.5 350.5,20.06 326.14,4.67 298.5,4.72 281.61,4.75 265.9,10.5 251.94,21.76 l -7.55,6.09 -9.45,-1.5 c -13.54,-2.14 -43.48,-2.11 -57.33,0.07 l -10.9,1.7 -3.6,-3.39 C 149.2,11.65 132.07,4.74 113.5,4.74 94.04,4.74 76.79,12.21 62.89,26.66 48.31,41.82 40.49,60.67 39.31,83.5 l -0.62,12 -4.92,5.5 c -5.62,6.28 -12.86,20.44 -15.33,30 -2.68,10.33 -2.32,26.62 0.79,36.17 3.21,9.83 8.31,18.86 14.66,25.95 l 5.03,5.61 -7.36,6.62 C 18.59,217 9.79,230.86 5.85,245.86 3.2,255.95 2.31,276.01 3.97,288.24 c 3.3,24.43 14.08,44.97 33.99,64.76 21.26,21.13 49.39,36.12 77.87,41.49 11.32,2.13 36.17,1.42 46.67,-1.35 z M 252.26,257.8 c -0.95,-1.17 -4.26,-19.15 -4.26,-23.17 0,-1.13 0.89,-1.63 2.89,-1.63 1.59,0 6.35,-0.72 10.58,-1.59 4.23,-0.87 7.88,-1.4 8.11,-1.16 0.68,0.68 -3.26,11.4 -6.14,16.69 -3.62,6.64 -9.75,12.6 -11.18,10.86 z m -97.01,-4.05 c -3.96,-4.04 -10.18,-15.84 -11.67,-22.13 -0.59,-2.49 -0.44,-2.78 1.12,-2.16 2.98,1.18 14.6,3.5 17.6,3.52 2.59,0.02 2.75,0.25 2.24,3.27 -0.57,3.44 -2.54,19.66 -2.54,20.97 0,1.93 -2.93,0.43 -6.75,-3.47 z M 281.31,140.62 c -18.51,-8.82 -26.29,-29.31 -19.68,-51.81 3.55,-12.08 12.29,-23.75 22.12,-29.51 6.38,-3.74 17.91,-4.43 24.59,-1.47 6.28,2.77 14.72,10.96 17.96,17.4 6.27,12.49 7.61,31.15 2.91,40.84 -1.21,2.51 -2.21,4.9 -2.21,5.31 0,0.42 -1.18,2.3 -2.62,4.19 -1.44,1.89 -2.39,3.43 -2.12,3.43 1.59,0 -7.93,8.05 -12.42,10.5 -4.55,2.49 -6.66,2.97 -14.34,3.26 -7.93,0.3 -9.62,0.04 -14.19,-2.14 z m 21.45,-9.56 c 6.17,-4.47 10.32,-13.65 10.95,-24.25 0.56,-9.45 -0.98,-15.95 -2.92,-12.31 -4.32,8.1 -11.55,8.74 -15.37,1.35 -2.05,-3.96 -1.2,-8.77 2.28,-12.91 2.15,-2.55 2.37,-3.28 1.21,-4.01 -4.17,-2.64 -13.52,0.45 -18.21,6.01 -9.35,11.12 -8.87,33.4 0.95,43.51 4.35,4.48 6.45,5.4 12.45,5.49 3.57,0.05 5.51,-0.6 8.66,-2.88 z"
       fill="rgb(244,246,240)"
       id="path4"
       style="fill:#000000;fill-opacity:0" /><path
       style="fill:#d0704d;fill-opacity:1"
       d="m 220.68337,296.02449 c -3.59,-3.36 -7.97,-8.35 -9.73,-11.1 -1.77,-2.75 -3.71,-4.84 -4.33,-4.64 -0.62,0.19 -2.69,2.57 -4.62,5.29 -4.42,6.22 -13.73,15.43 -15.61,15.43 -1.09,0 -0.87,-1.1 0.98,-4.75 7.76,-15.32 9.02,-33.72 4.02,-58.63 -0.62,-3.14 -1.06579,-5.05711 -1.12579,-6.33711 0.02,-0.62 0.23579,-1.16289 0.47579,-1.59289 0.4,-0.71 0.95838,-1.13919 2.18838,-1.67919 1.395,-0.555 4.27594,-1.93247 6.02334,-2.24914 0.96519,-0.17492 1.73455,-0.83753 1.89135,-0.22813 0.15679,0.6094 0.62662,3.09907 0.93985,5.15597 1.19,7.54 3.90708,23.02049 4.33708,22.59049 0.35,-0.35 0.55758,-1.38588 1.45846,-5.37231 0.87662,-3.87915 1.2256,-10.60608 3.07932,-17.68062 0.31,-2.07 0.55354,-3.94575 0.94354,-4.31575 1.57,0.48 3.50868,1.16868 5.14868,1.63868 1.61,0.45 3.08,0.88 4.19,1.22 0.98,0.34 2.05241,0.54537 2.18241,0.64537 0.13,0.1 -1.05241,4.19463 -2.19241,9.13463 l -0.11,0.5 c -1.64,7.11 -2.2,12.8 -2.24,22.95 -0.07,14.96 1.27,21.74 6.47,32.9 1.64,3.52 2.8,6.58 2.57,6.81 -0.23,0.23 -3.35,-2.33 -6.94,-5.69 z"
       id="path1-0"
       sodipodi:nodetypes="scccscccccsscssccccsccccss" /><path
       style="fill:#8a3722;fill-opacity:1"
       d="m 211.6034,225.94314 -2.55498,12.56547 c -0.74637,4.99264 -1.14321,10.43187 -2.97258,15.13594 l -0.97385,-3.83985 -3.18154,-17.70597 c -0.35315,-2.36753 -0.70857,-4.52979 -1.17994,-6.8926 l 3.30578,-0.7724 1.81651,-0.17697 3.11237,0.78725 z"
       id="path5"
       sodipodi:nodetypes="cccccccccc" /><path
       style="fill:#be6e34;fill-opacity:1;stroke-width:0.502916"
       d="m 269.31148,378.37717 c -5.52742,-0.85265 -16.19091,-0.14601 -16.66325,-3.43566 l 7.94391,-4.09075 c 8.35104,-4.30041 17.54596,-9.93136 24.42715,-15.43878 6.20715,-4.96794 14.89226,-13.99186 18.80137,-19.45921 4.24391,-5.93561 8.89144,-15.02201 10.30082,-20.30599 1.57155,-5.89201 1.60075,-15.28605 -0.16811,-22.13153 -3.77791,-14.62045 -4.76901,-18.69469 -4.82188,-22.84463 -0.0457,-3.58488 0.27823,-5.01829 1.26598,-6.87064 4.612,-8.6489 16.25096,-14.29482 32.4509,-15.71218 16.44726,-1.43899 32.74716,3.27417 41.26207,12.4657 7.46291,8.05594 10.05722,14.35335 7.88164,24.44487 -1.30203,6.03952 -4.06066,17.60819 -5.06919,20.87927 -1.09764,3.56013 -2.90865,9.22153 -6.30597,13.06017 -8.34312,11.3892 -21.81446,22.49969 -32.65131,31.54352 -14.72983,11.09819 -14.01746,10.19337 -19.51074,13.02105 -17.40498,8.95927 -39.26932,16.29203 -59.14336,14.87474 z"
       id="path7"
       transform="translate(2.4516979,4.0652815)"
       sodipodi:nodetypes="scssssssssssssssss" /><path
       style="fill:#be6e34;fill-opacity:1;stroke-width:0.502916"
       d="m 232.35217,333.00915 c 0.47799,-3.37207 2.47982,-8.70717 4.59262,-13.06045 7.04999,-14.52595 20.99773,-31.03095 33.2187,-39.11697 5.88292,-3.89244 19.88253,-11.12776 23.95059,-12.56305 2.68424,-0.94706 3.37139,-0.057 3.37139,2.84045 0,3.3592 1.36971,10.24436 4.37026,22.2101 2.26305,9.02467 2.91491,11.59125 2.38148,12.09607 -0.35949,0.3402 -2.80923,0.9556 -6.40507,1.68794 -20.83984,4.24434 -45.55968,13.36166 -60.38239,22.71752 -2.42028,1.52764 -5.12736,3.39848 -5.09758,3.18839 z"
       id="path8"
       transform="translate(2.4516979,4.0652815)"
       sodipodi:nodetypes="ssssssssss" /><path
       style="fill:#be6e34;fill-opacity:1;stroke-width:0.502916"
       d="m 388.53539,247.94955 c -7.63006,-5.93613 -14.51056,-9.10881 -25.02859,-11.17665 -3.92427,-0.7715 -21.28048,-0.5883 -27.11437,0.29174 -6.10409,0.92081 -12.7083,2.64102 -19.76051,5.0005 -2.94062,0.98385 -7.95082,2.8655 -8.13166,2.8655 -0.40751,0 6.17982,-5.19506 23.20178,-18.60094 17.06896,-13.4429 28.36643,-22.29026 28.97395,-22.29026 0.96677,0 10.49808,8.08656 14.7228,12.52876 6.82186,7.17303 12.92883,17.22143 15.65523,25.51205 1.88456,5.73075 2.68096,9.1067 2.26405,9.03585 -1.05592,-0.17946 -2.88733,-1.69197 -4.78268,-3.16655 z"
       id="path9"
       transform="translate(2.4516979,4.0652815)"
       sodipodi:nodetypes="sssssssssss" /><path
       style="fill:#be6e34;fill-opacity:1;stroke-width:0.502916"
       d="m 191.40467,322.38446 c -1.65962,-0.21949 -4.52087,-1.12616 -5.25435,-1.40762 -1.7083,-0.65554 -3.03659,-3.20644 -4.53294,-6.89973 -1.57592,-3.88968 -3.07986,-3.12088 7.45035,-10.2154 1.81348,-1.22179 6.69903,-5.59581 9.80346,-8.74395 l 4.92515,-4.99447 5.27478,5.34083 c 5.73354,5.80533 11.06531,10.05961 15.43175,12.50145 1.79179,1.00204 3.78183,2.2379 3.9255,2.47037 0.38961,0.6304 -3.30953,7.59636 -4.88515,9.4588 -0.75527,0.89276 -1.88613,2.03149 -2.90778,2.31524 -1.9316,0.5365 -24.65074,1.17093 -29.23077,0.17448 z"
       id="path10"
       transform="translate(2.4516979,4.0652815)"
       sodipodi:nodetypes="csssscsssssc" /><path
       style="fill:#be6e34;fill-opacity:1;stroke-width:0.502916"
       d="m 168.78392,328.97011 c -13.07559,-8.64032 -40.81532,-18.93265 -60.43357,-22.20295 -2.76603,-0.46109 -5.71711,-0.82907 -5.907,-1.00618 -0.1899,-0.1771 0.77042,-4.23526 1.85998,-8.38431 3.89706,-14.84006 5.50263,-21.30286 6.09337,-25.4211 0.32982,-2.29931 0.59586,-4.82481 0.65898,-4.90043 0.18957,-0.2271 8.2984,3.3152 13.37575,5.86777 16.88042,8.48644 31.14557,21.66688 40.55933,37.29456 6.2542,10.38254 11.10976,21.10869 9.03266,21.78246 -0.1974,0.064 -2.88837,-1.47619 -5.2395,-3.02982 z"
       id="path11"
       transform="translate(2.4516979,4.0652815)"
       sodipodi:nodetypes="ssssssssss" /><path
       style="fill:#be6e34;fill-opacity:1;stroke-width:0.502916"
       d="m 121.34135,377.8561 c -26.316132,-5.18501 -75.265211,-26.22162 -88.905582,-52.02187 -0.403218,-0.96189 -2.880889,-3.93198 -4.685108,-7.40496 -2.076568,-3.99723 -2.835407,-4.4618 -7.709862,-16.51117 -11.9510537,-29.54231 -4.785936,-48.57773 33.524513,-53.36544 23.912183,-1.77192 42.770032,6.70138 44.33572,19.92114 0.377072,3.18381 -0.407,7.88589 -3.404042,20.41401 -1.384794,5.78865 -2.650824,11.9493 -2.813407,13.69033 -0.797725,8.54266 3.788753,21.69132 11.489408,32.93821 3.60238,5.26131 12.84953,15.10792 18.32413,19.51201 2.00372,1.61191 6.34869,4.77915 9.65551,7.03833 3.30681,2.25917 7.0619,5.28549 8.63355,6.34497 3.05426,2.05893 5.54891,2.89688 8.48785,4.20359 2.39852,1.08142 5.48132,2.12675 6.07,2.13125 2.287,0.0175 1.1829,0.94608 -0.77851,1.31592 -6.45819,1.21774 -26.0502,3.01012 -32.22417,1.79368 z"
       id="path12"
       transform="translate(2.4516979,4.0652815)"
       sodipodi:nodetypes="ssssssssssssssss" /><path
       style="fill:#be6e34;fill-opacity:1;stroke-width:0.502916"
       d="m 14.020029,251.28876 c 0,-6.86838 8.614409,-34.11358 31.306664,-45.6554 1.508253,-0.76713 2.166187,-1.44866 4.618972,0.50789 16.190604,12.91506 38.734733,28.2684 52.219655,42.28698 -0.69543,0.69541 -25.414482,-15.30045 -49.679962,-13.12747 -29.048494,2.6013 -38.465329,20.5724 -38.465329,15.988 z"
       id="path13"
       transform="translate(2.4516979,4.0652815)"
       sodipodi:nodetypes="ssssss" /><path
       style="fill:#6d2c0f;fill-opacity:1"
       d="m 76.849709,228.16845 -4.545703,2.42438 -3.030469,2.5759 -3.030469,3.33351 -1.666758,2.27286 -0.757617,1.21218 11.818829,1.81828 2.272851,-3.33351 2.727422,-2.12133 2.878946,-1.9698 0.90914,-0.75762 -5.606367,-4.24266 z"
       id="path26" /><path
       style="fill:#6d2c0f;fill-opacity:1"
       d="m 348.06448,240.9449 -2.14667,-2.61333 -3.17332,-3.26666 -2.61333,-2.61333 -2.61333,-1.86666 -2.61333,-1.21334 -6.99999,5.13333 2.89333,2.24 2.89333,2.98666 1.95999,2.70666 5.31999,-1.02667 z"
       id="path27" /></g><g
     inkscape:groupmode="layer"
     id="layer1"
     inkscape:label="Layer 1"
     style="display:inline"><path
       style="fill:#d7996c;fill-opacity:1"
       d="m 139.27846,117.78611 -13.02864,-11.97795 -13.02865,-5.67377 -12.39823,-0.210143 -13.028652,2.101403 -12.818509,6.9346 0.210139,1.47098 1.891255,2.52167 2.101395,0.42028 h 2.941953 l 4.623069,-1.68111 7.354882,-2.73182 8.195438,-1.47097 10.29684,0.84055 9.66642,2.31154 9.03599,4.83321 6.30419,3.36223 z"
       id="path2" /><path
       style="fill:#d7996c;fill-opacity:1"
       d="M 52.137886,95.180808 51.960547,81.170967 55.684681,65.21039 62.068912,52.264588 75.546733,38.432088 87.960516,29.74244 101.261,25.486286 l 11.88176,-0.886699 12.41378,2.128077 13.47782,5.320193 11.88177,8.334968 12.9458,12.768462 6.38423,9.221667 3.36945,6.561571 0.8867,-1.064039 -8.15763,-16.137917 -10.46304,-14.541859 -11.34974,-11.349744 -8.86699,-4.965513 -12.41378,-4.965513 -14.00984,-1.596058 -12.591127,1.773397 -10.817724,4.433494 -7.27093,4.256154 -9.044327,7.44827 -5.497532,6.56157 -4.433494,8.157629 -5.142853,11.881763 -3.369455,11.527084 -0.886699,12.413782 -0.17734,8.689648 0.709359,3.546795 z"
       id="path3" /><path
       style="fill:#d7996c;fill-opacity:1"
       d="m 174.90359,48.491991 -3.1773,-11.077626 3.52079,-0.601112 16.65938,-1.975081 15.88652,-0.686984 10.99175,0.858731 8.07207,0.944603 7.72858,1.717462 -2.14683,8.759053 -1.20222,0.515239 -12.19398,-1.631589 -9.10255,-0.515238 -9.44603,-0.257619 -10.82001,0.85873 -9.01667,0.686985 -4.4654,1.288096 z"
       id="path6" /><path
       style="fill:#d7996c;fill-opacity:1"
       d="m 233.46644,67.992977 4.53881,-8.682931 10.45898,-12.432379 13.41908,-10.656325 14.20843,-6.906877 17.76054,-4.341466 15.39247,1.776054 14.99779,6.512199 12.62972,12.0377 9.27495,13.024397 6.5122,13.419076 1.97339,10.458985 0.39468,7.696235 1.18404,1.776054 V 82.39875 L 354.6328,67.20362 350.094,53.587205 342.39776,39.378772 331.93878,27.933089 321.08511,20.434194 307.4687,15.303371 295.431,14.316674 l -11.24834,0.592018 -11.44569,4.341466 -8.88027,5.525502 -11.44568,9.669628 -8.68293,12.0377 -7.4989,10.853664 -3.94678,8.485592 z"
       id="path16" /><path
       style="fill:#d7996c;fill-opacity:1"
       d="m 20.707465,264.46615 6.111954,-3.53135 10.322411,-3.25971 8.964198,-1.49403 10.050768,0.27164 10.322411,1.9015 9.235841,3.2597 6.519417,4.21046 7.741808,6.79106 4.074636,2.5806 2.716423,-0.13582 1.08657,-2.98806 -1.08657,-8.01345 -2.988066,-4.75375 -4.346278,-3.80299 -6.791059,-3.53135 -10.865696,-2.30896 -11.952265,-1.76568 -11.680622,0.95075 -9.779126,2.44478 -9.371662,4.61792 -6.926881,5.43285 -1.358212,1.76568 z"
       id="path17" /><path
       style="fill:#d7996c;fill-opacity:1"
       d="m 385.0885,262.10489 -8.7158,-3.15573 -6.76227,-1.95354 -8.86608,-1.20218 -9.16662,0.30055 -9.46717,1.50272 -7.81417,1.80327 -7.21308,3.75682 -8.71581,6.76226 -3.75681,3.15572 -3.60654,0.45082 -2.10381,-0.30055 0.30054,-5.25953 1.50273,-6.31145 4.80872,-4.95899 5.71035,-3.75682 7.6639,-3.15572 9.91799,-1.80327 7.96444,-0.75136 9.61744,0.75136 8.41526,1.35245 7.96445,3.15573 7.0628,4.20763 4.80872,3.60654 z"
       id="path18" /><path
       style="fill:#d7996c;fill-opacity:1"
       d="m 110.69516,276.30162 0.55911,-9.13225 7.36171,2.32966 7.45489,3.63426 12.67332,8.01401 10.34366,8.94587 7.82764,7.64126 4.56612,6.15029 6.52303,10.53003 5.03205,10.06411 2.14328,7.64126 -0.6523,-0.0932 -3.63426,-7.26852 -4.19338,-6.7094 -5.59117,-7.08215 -8.75949,-9.78454 -6.52303,-5.21843 -7.64127,-5.87072 -7.45489,-4.28657 -10.62322,-5.21842 -6.89578,-2.79559 z"
       id="path19" /><path
       style="fill:#d7996c;fill-opacity:1"
       d="m 234.18976,331.98044 3.88888,-7.77776 8.96602,-11.88268 7.99381,-9.07404 6.58949,-5.94135 12.63885,-8.64195 7.77775,-4.10492 8.42591,-3.56481 7.34565,-3.24073 -0.64814,-10.91046 -8.64195,4.10493 -11.99071,6.26541 -8.64195,5.83332 -11.88268,10.58639 -9.50615,11.01848 -4.75307,7.88578 -4.10493,7.45368 -2.59258,6.15739 -1.51234,4.75308 z"
       id="path20" /><path
       style="fill:#ad5436;fill-opacity:1"
       d="m 370.05701,211.5817 -12.99873,11.51787 -6.58164,4.60714 6.25255,6.74618 0.81305,1.92613 -5.94284,-0.0968 -6.58163,0.0193 -5.07175,-5.13951 -4.93623,-4.27806 -2.96173,-1.15179 5.92347,-4.4426 8.55613,-7.07526 7.73342,-6.08802 6.25255,-4.77168 6.74618,5.59439 z"
       id="path21"
       sodipodi:nodetypes="cccccccccccccccc" /><path
       style="fill:#ad5436;fill-opacity:1"
       d="m 37.190188,210.58344 9.011278,-7.62493 6.654483,4.02042 8.040833,6.79312 9.149913,7.48629 4.574957,2.91134 -6.793118,3.88178 -4.297686,4.57495 -1.947833,2.67568 -3.805511,-0.12478 -3.840198,0.1733 -5.108716,0.30499 4.859169,-4.2769 4.297687,-3.04997 -8.318104,-6.93176 -9.565818,-7.76356 z"
       id="path22"
       sodipodi:nodetypes="ccccccccccccccccc" /><path
       style="fill:#ad5436;fill-opacity:1"
       d="m 21.668633,263.53723 -1.019688,8.36143 0.407875,8.76932 4.8945,15.49925 10.808687,19.57799 15.091375,15.49925 21.2095,15.49925 22.025247,11.4205 21.005561,6.32207 20.18981,1.01968 11.3526,6.10649 10.82145,3.80213 -12.28381,2.92472 -18.7182,0.87741 -19.59561,-2.63224 -19.595601,-5.26449 -16.963362,-7.89674 -15.793476,-10.52898 -18.13325,-16.37842 -13.746173,-19.01067 -9.359096,-21.05797 -2.632246,-16.67089 1.462358,-8.48168 4.094605,-7.31179 z"
       id="path23" /><path
       style="fill:#ad5436;fill-opacity:1"
       d="m 384.72124,263.35684 0.21314,5.96798 -0.21314,10.6571 -4.68912,15.34622 -4.90227,11.08338 -7.45997,10.87024 -12.57537,13.64109 -11.72281,9.59138 -20.67477,13.00166 -17.69078,7.03369 -16.83822,4.90226 -18.54335,0.63943 -13.00166,6.6074 -7.03368,3.19713 6.18111,1.27885 10.6571,1.492 12.36224,0.85256 13.2148,-0.63942 14.06737,-3.41027 13.85422,-4.90227 11.29653,-5.11541 11.08338,-7.45996 12.57538,-9.59139 11.08338,-10.23082 9.59139,-11.93595 7.45997,-11.29652 5.1154,-10.01767 2.98399,-10.01768 2.34456,-11.7228 -0.21314,-5.75484 -2.13142,-7.03368 -4.0497,-5.54169 z"
       id="path24" /><path
       style="fill:#ad5436;fill-opacity:1"
       d="m 225.03088,309.62479 -7.32595,0.69113 -8.56997,0.82935 -7.46417,0.41468 -6.22014,-0.27645 -7.74062,-1.10581 -4.56144,-0.69112 -2.62628,0.96758 -1.93515,0.5529 1.79693,4.69966 2.48805,6.22014 2.34983,1.38225 6.4966,1.52048 8.29352,0.5529 8.56997,0.13823 7.32594,-0.82935 4.83789,-0.96758 1.1058,-0.41468 2.62629,-4.83788 2.62628,-4.97612 1.24403,-2.07338 -1.65871,-1.38225 z"
       id="path25" /></g></svg>
